<?xml version="1.0" encoding="iso-8859-1"?>
<!-- Generator: Adobe Illustrator 19.0.0, SVG Export Plug-In . SVG Version: 6.00 Build 0)  -->
<svg version="1.1" id="Capa_1" xmlns="http://www.w3.org/2000/svg" xmlns:xlink="http://www.w3.org/1999/xlink" x="0px" y="0px"
	 viewBox="0 0 512 512" style="enable-background:new 0 0 512 512;" xml:space="preserve">
<path style="fill:#006FAD;" d="M256.009,96.181c-4.142,0-7.5-3.357-7.5-7.5V19.667c0-4.143,3.358-7.5,7.5-7.5s7.5,3.357,7.5,7.5
	v69.014C263.509,92.823,260.151,96.181,256.009,96.181z"/>
<path style="fill:#21399B;" d="M256,39.42c-10.868,0-19.709-8.842-19.709-19.71S245.132,0,256,0c10.868,0,19.709,8.842,19.709,19.71
	S266.868,39.42,256,39.42z"/>
<path style="fill:#006FAD;" d="M336.609,96.181c-4.142,0-7.5-3.357-7.5-7.5V19.667c0-4.143,3.358-7.5,7.5-7.5s7.5,3.357,7.5,7.5
	v69.014C344.109,92.823,340.751,96.181,336.609,96.181z"/>
<path style="fill:#21399B;" d="M336.601,39.42c-10.868,0-19.709-8.842-19.709-19.71S325.733,0,336.601,0s19.709,8.842,19.709,19.71
	S347.468,39.42,336.601,39.42z"/>
<path style="fill:#006FAD;" d="M175.408,96.181c-4.142,0-7.5-3.357-7.5-7.5V19.667c0-4.143,3.358-7.5,7.5-7.5s7.5,3.357,7.5,7.5
	v69.014C182.908,92.823,179.55,96.181,175.408,96.181z"/>
<path style="fill:#21399B;" d="M175.399,39.42c-10.868,0-19.709-8.842-19.709-19.71S164.532,0,175.399,0s19.709,8.842,19.709,19.71
	S186.267,39.42,175.399,39.42z"/>
<path style="fill:#006FAD;" d="M255.991,499.834c-4.142,0-7.5-3.357-7.5-7.5V423.32c0-4.143,3.358-7.5,7.5-7.5s7.5,3.357,7.5,7.5
	v69.014C263.491,496.477,260.133,499.834,255.991,499.834z"/>
<path style="fill:#21399B;" d="M256,512c-10.868,0-19.709-8.842-19.709-19.709c0-10.868,8.842-19.71,19.709-19.71
	s19.709,8.842,19.709,19.71C275.709,503.158,266.868,512,256,512z"/>
<path style="fill:#006FAD;" d="M175.391,499.834c-4.142,0-7.5-3.357-7.5-7.5V423.32c0-4.143,3.358-7.5,7.5-7.5s7.5,3.357,7.5,7.5
	v69.014C182.891,496.477,179.533,499.834,175.391,499.834z"/>
<path style="fill:#21399B;" d="M175.399,512c-10.868,0-19.709-8.842-19.709-19.709c0-10.868,8.842-19.71,19.709-19.71
	s19.709,8.842,19.709,19.71C195.109,503.158,186.267,512,175.399,512z"/>
<path style="fill:#006FAD;" d="M336.592,499.834c-4.142,0-7.5-3.357-7.5-7.5V423.32c0-4.143,3.358-7.5,7.5-7.5s7.5,3.357,7.5,7.5
	v69.014C344.092,496.477,340.734,499.834,336.592,499.834z"/>
<path style="fill:#21399B;" d="M336.601,512c-10.868,0-19.709-8.842-19.709-19.709c0-10.868,8.842-19.71,19.709-19.71
	s19.709,8.842,19.709,19.71C356.31,503.158,347.468,512,336.601,512z"/>
<path style="fill:#006FAD;" d="M492.333,263.509H423.32c-4.142,0-7.5-3.357-7.5-7.5s3.358-7.5,7.5-7.5h69.013
	c4.142,0,7.5,3.357,7.5,7.5S496.475,263.509,492.333,263.509z"/>
<path style="fill:#21399B;" d="M492.291,275.71c-10.868,0-19.709-8.842-19.709-19.71c0-10.867,8.842-19.709,19.709-19.709
	S512,245.133,512,256C512,266.868,503.158,275.71,492.291,275.71z"/>
<path style="fill:#006FAD;" d="M492.333,344.109H423.32c-4.142,0-7.5-3.357-7.5-7.5s3.358-7.5,7.5-7.5h69.013
	c4.142,0,7.5,3.357,7.5,7.5S496.475,344.109,492.333,344.109z"/>
<path style="fill:#21399B;" d="M492.291,356.311c-10.868,0-19.709-8.842-19.709-19.709c0-10.868,8.842-19.71,19.709-19.71
	S512,325.733,512,336.602C512,347.469,503.158,356.311,492.291,356.311z"/>
<path style="fill:#006FAD;" d="M492.333,182.908H423.32c-4.142,0-7.5-3.357-7.5-7.5s3.358-7.5,7.5-7.5h69.013
	c4.142,0,7.5,3.357,7.5,7.5S496.475,182.908,492.333,182.908z"/>
<path style="fill:#21399B;" d="M492.291,195.109c-10.868,0-19.709-8.842-19.709-19.71c0-10.867,8.842-19.709,19.709-19.709
	S512,164.532,512,175.399C512,186.268,503.158,195.109,492.291,195.109z"/>
<path style="fill:#006FAD;" d="M88.68,263.492H19.667c-4.142,0-7.5-3.357-7.5-7.5s3.358-7.5,7.5-7.5H88.68
	c4.142,0,7.5,3.357,7.5,7.5S92.822,263.492,88.68,263.492z"/>
<path style="fill:#21399B;" d="M19.709,275.71C8.842,275.71,0,266.868,0,256c0-10.867,8.842-19.709,19.709-19.709
	s19.71,8.842,19.71,19.709C39.419,266.868,30.577,275.71,19.709,275.71z"/>
<path style="fill:#006FAD;" d="M88.68,182.892H19.667c-4.142,0-7.5-3.357-7.5-7.5s3.358-7.5,7.5-7.5H88.68
	c4.142,0,7.5,3.357,7.5,7.5S92.822,182.892,88.68,182.892z"/>
<path style="fill:#21399B;" d="M19.709,195.109C8.842,195.109,0,186.268,0,175.399c0-10.867,8.842-19.709,19.709-19.709
	s19.709,8.842,19.709,19.709C39.419,186.268,30.577,195.109,19.709,195.109z"/>
<path style="fill:#006FAD;" d="M88.68,344.093H19.667c-4.142,0-7.5-3.357-7.5-7.5s3.358-7.5,7.5-7.5H88.68
	c4.142,0,7.5,3.357,7.5,7.5S92.822,344.093,88.68,344.093z"/>
<path style="fill:#21399B;" d="M19.709,356.311C8.842,356.311,0,347.469,0,336.602c0-10.868,8.842-19.71,19.709-19.71
	s19.709,8.842,19.709,19.71C39.419,347.469,30.577,356.311,19.709,356.311z"/>
<path style="fill:#76C2E0;" d="M415.32,423.321H96.68c-4.418,0-8-3.582-8-8V96.68c0-4.418,3.582-8,8-8h318.64c4.418,0,8,3.582,8,8
	v318.64C423.32,419.739,419.738,423.321,415.32,423.321z"/>
<path style="fill:#2796AF;" d="M398.56,121.435v269.13c0,4.42-3.58,8-8,8H121.44c-4.42,0-8-3.58-8-8v-269.13c0-4.42,3.58-8,8-8
	h269.12C394.98,113.435,398.56,117.015,398.56,121.435z"/>
<g>
	<path style="fill:#0E7889;" d="M398.56,121.435v269.13c0,4.42-3.58,8-8,8H121.44c-4.42,0-8-3.58-8-8v-11.77h265.35v-265.36h11.77
		C394.98,113.435,398.56,117.015,398.56,121.435z"/>
	<path style="fill:#0E7889;" d="M315.869,328.633H196.131c-7.049,0-12.764-5.715-12.764-12.764V196.132
		c0-7.049,5.715-12.764,12.764-12.764h119.738c7.049,0,12.764,5.715,12.764,12.764V315.87
		C328.633,322.919,322.918,328.633,315.869,328.633z"/>
</g>
<path style="fill:#21399B;" d="M299.317,307.318h-86.634c-4.418,0-8-3.582-8-8v-86.634c0-4.418,3.582-8,8-8h86.634
	c4.418,0,8,3.582,8,8v86.634C307.317,303.736,303.735,307.318,299.317,307.318z"/>
<g>
	<path style="fill:#0E7889;" d="M163.19,170.515h-12.074c-4.142,0-7.5-3.357-7.5-7.5v-12.073c0-4.143,3.358-7.5,7.5-7.5h12.074
		c4.142,0,7.5,3.357,7.5,7.5v12.073C170.69,167.158,167.332,170.515,163.19,170.515z"/>
	<path style="fill:#0E7889;" d="M202.729,170.515h-12.073c-4.142,0-7.5-3.357-7.5-7.5v-12.073c0-4.143,3.358-7.5,7.5-7.5h12.073
		c4.142,0,7.5,3.357,7.5,7.5v12.073C210.229,167.158,206.871,170.515,202.729,170.515z"/>
	<path style="fill:#0E7889;" d="M242.267,170.515h-12.073c-4.142,0-7.5-3.357-7.5-7.5v-12.073c0-4.143,3.358-7.5,7.5-7.5h12.073
		c4.142,0,7.5,3.357,7.5,7.5v12.073C249.767,167.158,246.409,170.515,242.267,170.515z"/>
	<path style="fill:#0E7889;" d="M281.806,170.515h-12.073c-4.142,0-7.5-3.357-7.5-7.5v-12.073c0-4.143,3.358-7.5,7.5-7.5h12.073
		c4.142,0,7.5,3.357,7.5,7.5v12.073C289.306,167.158,285.948,170.515,281.806,170.515z"/>
	<path style="fill:#0E7889;" d="M321.345,170.515h-12.073c-4.142,0-7.5-3.357-7.5-7.5v-12.073c0-4.143,3.358-7.5,7.5-7.5h12.073
		c4.142,0,7.5,3.357,7.5,7.5v12.073C328.845,167.158,325.487,170.515,321.345,170.515z"/>
	<path style="fill:#0E7889;" d="M360.884,170.515H348.81c-4.142,0-7.5-3.357-7.5-7.5v-12.073c0-4.143,3.358-7.5,7.5-7.5h12.074
		c4.142,0,7.5,3.357,7.5,7.5v12.073C368.384,167.158,365.026,170.515,360.884,170.515z"/>
	<path style="fill:#0E7889;" d="M163.19,368.384h-12.074c-4.142,0-7.5-3.357-7.5-7.5v-12.073c0-4.143,3.358-7.5,7.5-7.5h12.074
		c4.142,0,7.5,3.357,7.5,7.5v12.073C170.69,365.026,167.332,368.384,163.19,368.384z"/>
	<path style="fill:#0E7889;" d="M202.729,368.384h-12.073c-4.142,0-7.5-3.357-7.5-7.5v-12.073c0-4.143,3.358-7.5,7.5-7.5h12.073
		c4.142,0,7.5,3.357,7.5,7.5v12.073C210.229,365.026,206.871,368.384,202.729,368.384z"/>
	<path style="fill:#0E7889;" d="M242.267,368.384h-12.073c-4.142,0-7.5-3.357-7.5-7.5v-12.073c0-4.143,3.358-7.5,7.5-7.5h12.073
		c4.142,0,7.5,3.357,7.5,7.5v12.073C249.767,365.026,246.409,368.384,242.267,368.384z"/>
	<path style="fill:#0E7889;" d="M281.806,368.542h-12.073c-4.142,0-7.5-3.357-7.5-7.5v-12.073c0-4.143,3.358-7.5,7.5-7.5h12.073
		c4.142,0,7.5,3.357,7.5,7.5v12.073C289.306,365.185,285.948,368.542,281.806,368.542z"/>
	<path style="fill:#0E7889;" d="M321.345,368.209h-12.073c-4.142,0-7.5-3.357-7.5-7.5v-12.073c0-4.143,3.358-7.5,7.5-7.5h12.073
		c4.142,0,7.5,3.357,7.5,7.5v12.073C328.845,364.851,325.487,368.209,321.345,368.209z"/>
	<path style="fill:#0E7889;" d="M360.884,368.209H348.81c-4.142,0-7.5-3.357-7.5-7.5v-12.073c0-4.143,3.358-7.5,7.5-7.5h12.074
		c4.142,0,7.5,3.357,7.5,7.5v12.073C368.384,364.851,365.026,368.209,360.884,368.209z"/>
	<path style="fill:#0E7889;" d="M163.19,210.229h-12.074c-4.142,0-7.5-3.357-7.5-7.5v-12.073c0-4.143,3.358-7.5,7.5-7.5h12.074
		c4.142,0,7.5,3.357,7.5,7.5v12.073C170.69,206.871,167.332,210.229,163.19,210.229z"/>
	<path style="fill:#0E7889;" d="M163.19,249.768h-12.074c-4.142,0-7.5-3.357-7.5-7.5v-12.073c0-4.143,3.358-7.5,7.5-7.5h12.074
		c4.142,0,7.5,3.357,7.5,7.5v12.073C170.69,246.41,167.332,249.768,163.19,249.768z"/>
	<path style="fill:#0E7889;" d="M163.19,289.307h-12.074c-4.142,0-7.5-3.357-7.5-7.5v-12.073c0-4.143,3.358-7.5,7.5-7.5h12.074
		c4.142,0,7.5,3.357,7.5,7.5v12.073C170.69,285.949,167.332,289.307,163.19,289.307z"/>
	<path style="fill:#0E7889;" d="M163.19,328.846h-12.074c-4.142,0-7.5-3.357-7.5-7.5v-12.074c0-4.143,3.358-7.5,7.5-7.5h12.074
		c4.142,0,7.5,3.357,7.5,7.5v12.074C170.69,325.488,167.332,328.846,163.19,328.846z"/>
	<path style="fill:#0E7889;" d="M360.884,210.054H348.81c-4.142,0-7.5-3.357-7.5-7.5V190.48c0-4.143,3.358-7.5,7.5-7.5h12.074
		c4.142,0,7.5,3.357,7.5,7.5v12.073C368.384,206.696,365.026,210.054,360.884,210.054z"/>
	<path style="fill:#0E7889;" d="M360.884,249.593H348.81c-4.142,0-7.5-3.357-7.5-7.5V230.02c0-4.143,3.358-7.5,7.5-7.5h12.074
		c4.142,0,7.5,3.357,7.5,7.5v12.073C368.384,246.235,365.026,249.593,360.884,249.593z"/>
	<path style="fill:#0E7889;" d="M360.884,289.132H348.81c-4.142,0-7.5-3.357-7.5-7.5v-12.073c0-4.143,3.358-7.5,7.5-7.5h12.074
		c4.142,0,7.5,3.357,7.5,7.5v12.073C368.384,285.774,365.026,289.132,360.884,289.132z"/>
	<path style="fill:#0E7889;" d="M360.884,328.671H348.81c-4.142,0-7.5-3.357-7.5-7.5v-12.074c0-4.143,3.358-7.5,7.5-7.5h12.074
		c4.142,0,7.5,3.357,7.5,7.5v12.074C368.384,325.313,365.026,328.671,360.884,328.671z"/>
</g>
<g>
</g>
<g>
</g>
<g>
</g>
<g>
</g>
<g>
</g>
<g>
</g>
<g>
</g>
<g>
</g>
<g>
</g>
<g>
</g>
<g>
</g>
<g>
</g>
<g>
</g>
<g>
</g>
<g>
</g>
</svg>
