<?xml version="1.0" encoding="iso-8859-1"?>
<!-- Generator: Adobe Illustrator 19.0.0, SVG Export Plug-In . SVG Version: 6.00 Build 0)  -->
<svg version="1.1" id="Capa_1" xmlns="http://www.w3.org/2000/svg" xmlns:xlink="http://www.w3.org/1999/xlink" x="0px" y="0px"
	 viewBox="0 0 511.977 511.977" style="enable-background:new 0 0 511.977 511.977;" xml:space="preserve">
<g>
	<g>
		<g>
			<path d="M301.691,310.994c-5.049,0-9.143,4.093-9.143,9.143c0,5.049,4.093,9.143,9.143,9.143s9.143-4.093,9.143-9.143
				C310.819,315.094,306.734,311.009,301.691,310.994z"/>
			<path d="M121.943,351.314l-29.44,29.44l38.857,38.857l29.44-29.44C146.34,378.82,133.294,365.774,121.943,351.314z"/>
			
				<rect x="61.827" y="409.041" transform="matrix(-0.7071 -0.7071 0.7071 -0.7071 -146.5235 784.9307)" width="54.952" height="27.541"/>
			<path d="M8.023,465.326c-10.697,10.708-10.697,28.058,0,38.766c10.857,10.331,27.909,10.331,38.766,0l39.314-39.223
				l-38.857-38.857L8.023,465.326z"/>
			<path d="M301.691,0.137c-116.138,0-210.286,94.148-210.286,210.286s94.148,210.286,210.286,210.286
				s210.286-94.148,210.286-210.286C511.831,94.346,417.768,0.283,301.691,0.137z M301.691,402.423c-106.039,0-192-85.961-192-192
				s85.961-192,192-192s192,85.961,192,192C493.575,316.413,407.682,402.307,301.691,402.423z"/>
			<path d="M315.314,92.937c-19.004-4.007-38.804,0.725-53.943,12.891c-15.019,12.137-23.727,30.427-23.68,49.737
				c0,5.049,4.093,9.143,9.143,9.143c5.049,0,9.143-4.093,9.143-9.143c-0.044-13.78,6.179-26.833,16.914-35.474
				c8.075-6.671,18.235-10.295,28.709-10.24c3.379-0.023,6.75,0.314,10.057,1.006c17.375,3.798,30.945,17.368,34.743,34.743
				c2.753,12.43,0.208,25.445-7.026,35.922s-18.501,17.47-31.1,19.301c-8.969,1.3-15.647,8.95-15.726,18.011v28.16
				c0,5.049,4.093,9.143,9.143,9.143s9.143-4.093,9.143-9.143v-20.571c-0.018-4.179,2.809-7.834,6.857-8.869
				c28.71-7.432,48.568-33.596,48.003-63.247S344.287,99.268,315.314,92.937z"/>
			<path d="M307.086,36.891c-0.756-0.12-1.523-0.15-2.286-0.091c-0.79-0.074-1.584-0.105-2.377-0.091h-0.731
				c-95.187-0.014-172.653,76.588-173.705,171.769c-1.052,95.182,74.701,173.478,169.865,175.568
				c1.006,0.091,2.103,0.091,3.109,0.091h0.731c1.189,0,2.286,0,3.474-0.091c94.179-1.845,169.71-78.445,170.231-172.641
				C475.918,117.209,401.238,39.778,307.086,36.891z M304.434,347.383c-0.914,0.091-1.829,0.183-2.743,0.183
				c-0.917-0.012-1.832-0.073-2.743-0.183c-14.541-1.461-25.383-14.068-24.651-28.664s12.78-26.055,27.394-26.055
				s26.663,11.459,27.394,26.055C329.817,333.315,318.976,345.921,304.434,347.383z M369.074,202.743
				c-9.85,14.035-23.809,24.672-39.954,30.446v13.806c0,15.148-12.28,27.429-27.429,27.429s-27.429-12.28-27.429-27.429v-28.16
				c0.123-18.155,13.486-33.499,31.451-36.114c7.46-1.123,14.135-5.253,18.469-11.429c4.423-6.398,5.98-14.349,4.297-21.943
				c-2.244-10.29-10.281-18.327-20.571-20.571c-8.158-1.863-16.721,0.088-23.267,5.3c-6.547,5.212-10.366,13.12-10.378,21.488
				c0,15.148-12.28,27.429-27.429,27.429c-15.148,0-27.429-12.28-27.429-27.429c-0.003-21.824,8.666-42.756,24.098-58.188
				s36.364-24.101,58.188-24.098c0.763-0.017,1.526,0.013,2.286,0.091c0.67-0.046,1.342-0.046,2.011,0
				c4.395,0.258,8.765,0.838,13.074,1.737c26.959,5.793,49.219,24.714,59.279,50.388S384.921,180.177,369.074,202.743z"/>
		</g>
	</g>
</g>
<g>
</g>
<g>
</g>
<g>
</g>
<g>
</g>
<g>
</g>
<g>
</g>
<g>
</g>
<g>
</g>
<g>
</g>
<g>
</g>
<g>
</g>
<g>
</g>
<g>
</g>
<g>
</g>
<g>
</g>
</svg>
